<svg data-v-fde0c5aa="" xmlns="http://www.w3.org/2000/svg" viewBox="0 0 300 300" class="iconLeft"><!----><defs data-v-fde0c5aa=""><!----></defs><rect data-v-fde0c5aa="" fill="#E5D3DA" x="0" y="0" width="300px" height="300px" class="logo-background-square"></rect><defs data-v-fde0c5aa=""><!----></defs><g data-v-fde0c5aa="" id="f591f0f1-5798-49c8-9a53-73c2e9c9696d" fill="#240A14" transform="matrix(3.4057951318530804,0,0,3.4057951318530804,97.88415844313342,122.32775052871685)"><path d="M1.91 3.85L0.92 4.96L1.05 5.13L1.05 5.13Q1.46 4.75 4.61 4.81L4.61 4.81L4.61 10.12L4.61 10.12Q4.64 11.14 4.53 11.37L4.53 11.37L4.53 11.37Q3.77 11.91 2.97 11.58L2.97 11.58L2.97 11.58Q2.17 11.26 1.64 10.64L1.64 10.64L1.64 10.64Q1.11 10.03 1.39 8.84L1.39 8.84L1.18 8.80L0.27 10.06L0.27 10.06Q0.59 11.44 1.44 12.04L1.44 12.04L1.44 12.04Q2.28 12.63 3.55 12.71L3.55 12.71L3.55 12.71Q5.43 11.52 5.76 9.99L5.76 9.99L5.73 5.09L5.73 5.09Q5.67 4.29 6.01 4.04L6.01 4.04L5.91 3.85L1.91 3.85ZM9.04 6.45L9.04 6.45Q7.89 7.21 7.41 7.77L7.41 7.77L7.41 7.77Q6.94 8.33 6.75 8.89L6.75 8.89L6.75 8.89Q6.56 9.46 6.68 10.32L6.68 10.32L6.68 10.32Q6.81 11.17 7.68 11.96L7.68 11.96L7.68 11.96Q8.54 12.75 9.06 12.75L9.06 12.75L9.06 12.75Q9.58 12.76 10.70 11.73L10.70 11.73L10.70 11.73Q11.13 11.34 11.52 10.82L11.52 10.82L11.52 10.82Q11.92 10.31 12.03 9.74L12.03 9.74L12.03 9.74Q12.14 9.17 11.97 8.50L11.97 8.50L11.97 8.50Q11.79 7.83 10.99 7.04L10.99 7.04L10.99 7.04Q10.18 6.25 9.04 6.45L9.04 6.45ZM8.67 7.26L8.67 7.26L8.67 7.26Q9.46 7.08 10.40 8.24L10.40 8.24L10.40 8.24Q11.33 9.41 11.14 10.23L11.14 10.23L11.14 10.23Q10.94 11.06 10.28 11.56L10.28 11.56L10.28 11.56Q9.63 12.05 8.89 11.45L8.89 11.45L8.89 11.45Q8.15 10.84 7.71 10.15L7.71 10.15L7.71 10.15Q7.27 9.46 7.58 8.45L7.58 8.45L7.58 8.45Q7.89 7.43 8.67 7.26ZM13.92 3.51L12.88 4.14L12.88 4.14Q13.13 4.59 13.10 5.50L13.10 5.50L13.10 5.50Q13.07 11.40 13.19 11.88L13.19 11.88L13.19 11.88Q13.31 12.37 13.78 12.71L13.78 12.71L14.66 11.96L14.66 11.96Q14.29 11.46 14.22 10.78L14.22 10.78L14.22 10.78Q14.14 10.10 14.22 8.21L14.22 8.21L14.22 8.21Q15.12 7.25 16.25 7.23L16.25 7.23L16.25 7.23Q17.38 7.21 17.21 9.29L17.21 9.29L17.21 9.29Q17.18 11.34 17.31 11.82L17.31 11.82L17.31 11.82Q17.45 12.30 17.94 12.68L17.94 12.68L18.75 11.88L18.75 11.88Q18.36 11.82 18.27 11.01L18.27 11.01L18.27 11.01Q18.17 10.20 18.24 8.76L18.24 8.76L18.24 8.76Q18.29 7.88 18.09 7.35L18.09 7.35L18.09 7.35Q17.90 6.82 17.25 6.58L17.25 6.58L17.25 6.58Q16.60 6.33 15.99 6.50L15.99 6.50L15.99 6.50Q15.38 6.67 14.97 7.01L14.97 7.01L14.97 7.01Q14.56 7.36 14.25 7.55L14.25 7.55L14.22 4.85L14.22 4.85Q14.25 3.89 13.92 3.51L13.92 3.51ZM20.57 6.39L19.22 7.22L19.31 7.33L19.31 7.33Q19.94 6.92 19.93 8.52L19.93 8.52L19.93 8.52Q19.86 11.43 19.95 11.88L19.95 11.88L19.95 11.88Q20.04 12.34 20.79 12.70L20.79 12.70L21.79 12.00L21.73 11.86L21.73 11.86Q21.18 12.18 21.05 11.16L21.05 11.16L21.05 11.16Q20.93 10.14 21.01 8.24L21.01 8.24L21.01 8.24Q22.32 6.81 23.28 7.10L23.28 7.10L23.28 7.10Q24.24 7.39 24.10 9.29L24.10 9.29L24.10 9.29Q24.06 11.34 24.11 11.83L24.11 11.83L24.11 11.83Q24.16 12.32 24.75 12.68L24.75 12.68L25.79 11.95L25.70 11.79L25.70 11.79Q25.22 12.04 25.16 11.10L25.16 11.10L25.16 11.10Q25.09 10.17 25.16 8.73L25.16 8.73L25.16 8.73Q25.20 7.85 24.94 7.26L24.94 7.26L24.94 7.26Q24.67 6.68 23.99 6.44L23.99 6.44L23.99 6.44Q23.32 6.20 22.50 6.55L22.50 6.55L22.50 6.55Q21.69 6.90 21.03 7.59L21.03 7.59L21.03 7.59Q21.10 6.75 20.57 6.39L20.57 6.39ZM30.91 3.50L29.46 4.78L29.54 4.93L29.54 4.93Q30.17 4.50 30.27 5.69L30.27 5.69L30.26 10.02L30.26 10.02Q30.26 11.20 30.74 11.92L30.74 11.92L30.74 11.92Q31.21 12.64 32.20 12.71L32.20 12.71L32.20 12.71Q33.19 12.78 33.87 12.30L33.87 12.30L33.87 12.30Q34.56 11.83 35.04 11.17L35.04 11.17L35.04 11.17Q35.52 10.51 35.90 9.52L35.90 9.52L35.90 9.52Q36.28 8.53 36.21 6.97L36.21 6.97L36.21 6.97Q36.13 5.41 35.20 4.46L35.20 4.46L35.20 4.46Q34.26 3.52 33.27 3.50L33.27 3.50L31.49 4.92L31.49 4.92Q31.38 3.93 30.91 3.50L30.91 3.50ZM32.62 4.78L32.62 4.78L32.62 4.78Q33.37 4.49 34.21 5.27L34.21 5.27L34.21 5.27Q35.05 6.05 35.14 7.96L35.14 7.96L35.14 7.96Q35.23 9.87 34.85 10.63L34.85 10.63L34.85 10.63Q34.47 11.38 33.82 11.75L33.82 11.75L33.82 11.75Q33.17 12.11 32.33 11.71L32.33 11.71L32.33 11.71Q31.49 11.31 31.47 9.63L31.47 9.63L31.47 5.56L31.47 5.56Q31.87 5.07 32.62 4.78ZM39.16 6.45L39.16 6.45Q38.01 7.21 37.53 7.77L37.53 7.77L37.53 7.77Q37.06 8.33 36.87 8.89L36.87 8.89L36.87 8.89Q36.67 9.46 36.80 10.32L36.80 10.32L36.80 10.32Q36.93 11.17 37.80 11.96L37.80 11.96L37.80 11.96Q38.66 12.75 39.18 12.75L39.18 12.75L39.18 12.75Q39.70 12.76 40.82 11.73L40.82 11.73L40.82 11.73Q41.25 11.34 41.64 10.82L41.64 10.82L41.64 10.82Q42.03 10.31 42.15 9.74L42.15 9.74L42.15 9.74Q42.26 9.17 42.09 8.50L42.09 8.50L42.09 8.50Q41.91 7.83 41.10 7.04L41.10 7.04L41.10 7.04Q40.30 6.25 39.16 6.45L39.16 6.45ZM38.79 7.26L38.79 7.26L38.79 7.26Q39.58 7.08 40.52 8.24L40.52 8.24L40.52 8.24Q41.45 9.41 41.25 10.23L41.25 10.23L41.25 10.23Q41.06 11.06 40.40 11.56L40.40 11.56L40.40 11.56Q39.74 12.05 39.01 11.45L39.01 11.45L39.01 11.45Q38.27 10.84 37.83 10.15L37.83 10.15L37.83 10.15Q37.39 9.46 37.70 8.45L37.70 8.45L37.70 8.45Q38.01 7.43 38.79 7.26ZM46.01 6.60L46.01 6.60L46.01 6.60Q44.95 6.43 44.02 7.26L44.02 7.26L44.02 7.26Q43.09 8.09 42.83 9.20L42.83 9.20L42.83 9.20Q42.57 10.31 42.99 11.26L42.99 11.26L42.99 11.26Q43.41 12.22 44.55 12.62L44.55 12.62L44.55 12.62Q45.48 12.93 46.48 12.18L46.48 12.18L46.48 12.18Q47.49 11.43 47.60 10.84L47.60 10.84L47.39 10.68L47.39 10.68Q46.57 11.85 45.79 11.81L45.79 11.81L45.79 11.81Q45.01 11.76 44.63 11.46L44.63 11.46L44.63 11.46Q44.24 11.15 44.03 10.80L44.03 10.80L45.92 9.54L45.92 9.54Q47.37 8.65 47.22 7.70L47.22 7.70L47.22 7.70Q47.08 6.76 46.01 6.60ZM43.58 8.75L43.58 8.75L43.58 8.75Q43.59 8.12 44.09 7.58L44.09 7.58L44.09 7.58Q44.60 7.04 45.20 7.19L45.20 7.19L45.20 7.19Q45.79 7.34 46.03 8.00L46.03 8.00L46.03 8.00Q46.27 8.67 45.97 9.02L45.97 9.02L45.97 9.02Q45.68 9.37 43.85 10.40L43.85 10.40L43.85 10.40Q43.70 10.04 43.63 9.71L43.63 9.71L43.63 9.71Q43.57 9.37 43.58 8.75Z"></path></g><defs data-v-fde0c5aa=""><linearGradient data-v-fde0c5aa="" gradientTransform="rotate(25)" id="b65c2c0b-20b9-47c5-8e1e-4303fdd87759" x1="0%" y1="0%" x2="100%" y2="0%"><stop data-v-fde0c5aa="" offset="0%" stop-color="#30092A" stop-opacity="1"></stop><stop data-v-fde0c5aa="" offset="100%" stop-color="#CB3C61" stop-opacity="1"></stop></linearGradient></defs><g data-v-fde0c5aa="" id="1ad204f0-0461-4d8b-9996-c200a06d8fbd" stroke="none" fill="url(#b65c2c0b-20b9-47c5-8e1e-4303fdd87759)" transform="matrix(0.472558959240534,0,0,0.472558959240534,39.27367679492184,126.37205023530393)"><path d="M85.102 75.82s8.129-2.684 5.751-14.886v-.007a.642.642 0 0 0-.005-.037l-.007-.002a1.285 1.285 0 0 0-2.535.304c0 .026.007.051.008.078l-.006.002s-1.402 14.548-13.434 7.625c.001 0 3.51 7.826 10.228 6.923zM14.9 75.82c6.717.903 10.225-6.923 10.225-6.923-12.03 6.923-13.433-7.625-13.433-7.625-.001-.002-.003-.002-.005-.002.002-.027.009-.052.009-.078a1.285 1.285 0 1 0-2.536-.304l-.005.002-.008.037v.007C6.769 73.136 14.9 75.82 14.9 75.82zM15.657 89.886c-.251.015-.502.031-.756.031-4.332 0-8.334-2.136-11.596-5.747a.972.972 0 0 0-1.768.555c0 .156.041.3.105.432l-.001-.002c2.412 6.903 9.585 11.912 18.067 11.912.252 0 .502-.016.753-.023-1.752-1.648-3.45-3.951-4.804-7.158zM98.337 85.386a.96.96 0 0 0 .127-.469.97.97 0 0 0-1.778-.541v-.002c-3.23 3.487-7.161 5.543-11.411 5.543-.383 0-.758-.021-1.134-.056-1.354 3.212-3.05 5.521-4.8 7.17.346.016.694.035 1.042.035 8.379 0 15.481-4.891 17.974-11.667l-.019-.014h-.001z"></path><path d="M96.962 69.544c0-.854-.691-1.544-1.542-1.544-.603 0-1.12.349-1.373.853l-.004-.002c-2.438 5.061-6.066 8.273-10.122 8.273-7.186 0-13.033-10.08-13.281-22.676a7.628 7.628 0 0 0 1.59-11.968c.29-.942.605-1.854.964-2.714a26.542 26.542 0 0 0 3.454-13.123C76.648 11.929 64.728 0 50.026 0 35.323 0 23.404 11.929 23.404 26.644c0 4.697 1.219 9.109 3.352 12.941.383.909.727 1.872 1.034 2.876a7.633 7.633 0 0 0 1.586 11.997c-.25 12.592-6.098 22.666-13.281 22.666-4.011 0-7.604-3.143-10.041-8.107-.058-.117-.117-.234-.174-.353a1.52 1.52 0 0 0-2.775.857c0 .171.035.33.086.482.022.059.05.113.068.173 2.676 8.927 7.176 11.76 10.303 12.368-.045-.251-.092-.504-.134-.765l-.054-.345.024-.028c-.034-1.098.542-2.036 1.46-2.332.192-.063.392-.096.594-.096.978 0 1.907.731 2.297 1.797l.01.005.072.257c.006.021.388 1.345 1.179 2.977.231.015.461.033.695.033 3.585 0 6.936-1.447 9.794-3.958-2.121 3.534-4.785 6.28-7.783 7.964 1.525 1.544 3.583 2.437 5.778 2.437 3.027 0 5.782-1.7 7.18-4.33h.001c1.798-3.637 2.761-9.605 2.761-9.605-.098 1.752.166 5.048-1.146 8.92l-.023.063a9.363 9.363 0 0 1-8.773 6.156 9.314 9.314 0 0 1-7.375-3.617 9.308 9.308 0 0 1-.411-.567 14.85 14.85 0 0 1-.63-.905c-.015-.022-.028-.046-.042-.067a18.725 18.725 0 0 1-.516-.857c-.016-.028-.029-.053-.045-.079a23.408 23.408 0 0 1-.446-.843c-.008-.019-.017-.035-.026-.054a22.442 22.442 0 0 1-1.195-2.903h-.03l-.134-.534c-.233-.727-.885-1.221-1.417-1.046-.431.138-.69.693-.615 1.318l.006.078h.002c.084.524.177 1.029.274 1.522.107.546.226 1.068.349 1.579.035.144.069.288.106.43.051.199.103.396.156.593l.128.448c.059.201.118.403.179.6.081.262.165.521.25.771.052.153.105.299.159.446.058.164.116.324.175.479.055.143.109.285.164.423.067.168.136.334.206.496.049.119.098.238.148.353 1.49 3.379 3.374 5.646 5.246 7.164a17.379 17.379 0 0 0 .943.703 14.482 14.482 0 0 0 1.768 1.041 13.5 13.5 0 0 0 1.554.654c.025.01.052.021.079.028a15.244 15.244 0 0 0 .765.236c.207.058.406.108.593.151.028.006.055.011.082.018.192.042.377.078.546.106l.148.025.045.008a8.672 8.672 0 0 0 1.157.107l.089-.017.261.002c4.042 0 13.92-1.798 19.497-18.141l.206-.589.205.589c5.575 16.343 15.455 18.141 19.495 18.141l.262-.002.091.018c.136-.002.55-.015 1.157-.107l.046-.008.147-.025a8.86 8.86 0 0 0 .551-.108l.078-.016c.192-.046.395-.096.604-.155l.093-.025c.218-.062.443-.134.677-.213.021-.009.042-.015.064-.022.757-.266 1.59-.634 2.457-1.146.017-.009.033-.02.05-.027.281-.169.568-.352.857-.551.017-.013.031-.025.05-.036a15.1 15.1 0 0 0 .887-.671c1.872-1.525 3.756-3.803 5.239-7.197a28.66 28.66 0 0 0 .688-1.75c.043-.123.088-.245.132-.372.087-.257.172-.521.256-.792.064-.201.123-.407.183-.615a32.509 32.509 0 0 0 .282-1.031c.021-.084.04-.168.062-.25.129-.525.25-1.065.363-1.628.107-.528.209-1.07.298-1.636l.006-.078c.077-.625-.183-1.181-.615-1.318-.531-.175-1.184.319-1.415 1.046l-.134.534h-.031a22.15 22.15 0 0 1-.819 2.112l-.002.003c-.12.265-.25.54-.391.825-.009.019-.019.037-.027.056-.135.27-.284.547-.439.828-.017.026-.032.053-.046.078-.159.282-.328.566-.512.848-.015.021-.027.044-.04.065-.196.302-.401.602-.624.894a9.003 9.003 0 0 1-.378.53 9.324 9.324 0 0 1-7.406 3.655 9.361 9.361 0 0 1-8.773-6.156l-.024-.063c-1.142-2.622-1.047-7.168-1.146-8.92 0 0 .965 5.969 2.761 9.605h.002a8.153 8.153 0 0 0 7.181 4.33c2.26 0 4.377-.943 5.914-2.575-2.855-1.671-5.396-4.313-7.443-7.681 2.82 2.42 6.106 3.813 9.62 3.813.128 0 .255-.013.384-.017.798-1.64 1.183-2.972 1.188-2.993l.072-.257.008-.005c.391-1.065 1.319-1.797 2.296-1.797.204 0 .403.032.597.096.919.296 1.492 1.234 1.46 2.332l.023.028-.055.345c-.05.314-.105.615-.161.92 5.092-1.181 9.156-6.809 10.634-12.524l-.006-.003c.086-.195.136-.406.136-.631zM34.926 51.859a2.874 2.874 0 1 1 .001-5.747 2.874 2.874 0 0 1-.001 5.747zm30.151 0a2.873 2.873 0 0 1-2.872-2.875 2.873 2.873 0 1 1 5.743 0 2.873 2.873 0 0 1-2.871 2.875z"></path></g><!----></svg>