<?xml version="1.0" encoding="utf-8"?>
<!-- Generator: Adobe Illustrator 23.0.1, SVG Export Plug-In . SVG Version: 6.00 Build 0)  -->
<svg version="1.1" id="Layer_1" xmlns="http://www.w3.org/2000/svg" xmlns:xlink="http://www.w3.org/1999/xlink" x="0px" y="0px"
	 viewBox="0 0 435 112" style="enable-background:new 0 0 435 112;" xml:space="preserve">
<style type="text/css">
	.st0{fill:#FFFFFF;stroke:#240A14;stroke-miterlimit:10;}
	.st1{fill:#287037;}
	.st2{fill:#31A34C;}
</style>
<g transform="matrix(6.486418942805808,0,0,6.486418942805808,125.94535485186157,2.8530971500392894)">
	<path class="st0" d="M1.9,3.8L0.9,5L1,5.1l0,0c0.3-0.3,1.5-0.4,3.6-0.3l0,0v5.3l0,0c0,0.7,0,1.1-0.1,1.3l0,0l0,0
		c-0.5,0.4-1,0.4-1.6,0.2l0,0l0,0c-0.5-0.2-1-0.5-1.3-0.9l0,0l0,0c-0.4-0.4-0.4-1-0.3-1.8l0,0l-0.2,0l-0.9,1.3l0,0
		c0.2,0.9,0.6,1.6,1.2,2l0,0l0,0c0.6,0.4,1.3,0.6,2.1,0.7l0,0l0,0c1.3-0.8,2-1.7,2.2-2.7l0,0l0-4.9l0,0C5.7,4.6,5.8,4.2,6,4l0,0
		L5.9,3.8H1.9z M9,6.4L9,6.4C8.3,7,7.7,7.4,7.4,7.8l0,0l0,0C7.1,8.1,6.9,8.5,6.7,8.9l0,0l0,0c-0.1,0.4-0.1,0.9-0.1,1.4l0,0l0,0
		c0.1,0.6,0.4,1.1,1,1.6l0,0l0,0c0.6,0.5,1,0.8,1.4,0.8l0,0l0,0c0.3,0,0.9-0.3,1.6-1l0,0l0,0c0.3-0.3,0.6-0.6,0.8-0.9l0,0l0,0
		c0.3-0.3,0.4-0.7,0.5-1.1l0,0l0,0c0.1-0.4,0.1-0.8-0.1-1.2l0,0l0,0c-0.1-0.4-0.4-0.9-1-1.5l0,0l0,0C10.4,6.5,9.8,6.3,9,6.4L9,6.4z
		 M8.7,7.3L8.7,7.3L8.7,7.3c0.5-0.1,1.1,0.2,1.7,1l0,0l0,0c0.6,0.8,0.9,1.4,0.7,2l0,0l0,0c-0.1,0.6-0.4,1-0.9,1.3l0,0l0,0
		c-0.4,0.3-0.9,0.3-1.4-0.1l0,0l0,0C8.4,11,8,10.6,7.7,10.1l0,0l0,0c-0.3-0.5-0.3-1-0.1-1.7l0,0l0,0C7.8,7.8,8.2,7.4,8.7,7.3z
		 M13.9,3.5l-1,0.6l0,0c0.2,0.3,0.2,0.8,0.2,1.4l0,0l0,0c0,3.9,0,6.1,0.1,6.4l0,0l0,0c0.1,0.3,0.3,0.6,0.6,0.8l0,0l0.9-0.8l0,0
		c-0.2-0.3-0.4-0.7-0.4-1.2l0,0l0,0c-0.1-0.5-0.1-1.3,0-2.6l0,0l0,0c0.6-0.6,1.3-1,2-1l0,0l0,0c0.8,0,1.1,0.7,1,2.1l0,0l0,0
		c0,1.4,0,2.2,0.1,2.5l0,0l0,0c0.1,0.3,0.3,0.6,0.6,0.9l0,0l0.8-0.8l0,0c-0.3,0-0.4-0.3-0.5-0.9l0,0l0,0c-0.1-0.5-0.1-1.3,0-2.3l0,0
		l0,0c0-0.6,0-1.1-0.1-1.4l0,0l0,0C18,7,17.7,6.7,17.3,6.6l0,0l0,0c-0.4-0.2-0.9-0.2-1.3-0.1l0,0l0,0c-0.4,0.1-0.7,0.3-1,0.5l0,0
		l0,0c-0.3,0.2-0.5,0.4-0.7,0.5l0,0l0-2.7l0,0C14.2,4.2,14.1,3.8,13.9,3.5L13.9,3.5z M20.6,6.4l-1.4,0.8l0.1,0.1l0,0
		c0.4-0.3,0.6,0.1,0.6,1.2l0,0l0,0c0,1.9,0,3.1,0,3.4l0,0l0,0c0.1,0.3,0.3,0.6,0.8,0.8l0,0l1-0.7l-0.1-0.1l0,0
		c-0.4,0.2-0.6,0-0.7-0.7l0,0l0,0C21,10.5,21,9.5,21,8.2l0,0l0,0c0.9-1,1.6-1.3,2.3-1.1l0,0l0,0c0.6,0.2,0.9,0.9,0.8,2.2l0,0l0,0
		c0,1.4,0,2.2,0,2.5l0,0l0,0c0,0.3,0.2,0.6,0.6,0.8l0,0l1-0.7l-0.1-0.2l0,0c-0.3,0.2-0.5-0.1-0.5-0.7l0,0l0,0c0-0.6,0-1.4,0-2.4l0,0
		l0,0c0-0.6,0-1.1-0.2-1.5l0,0l0,0c-0.2-0.4-0.5-0.7-1-0.8l0,0l0,0c-0.4-0.2-0.9-0.1-1.5,0.1l0,0l0,0c-0.5,0.2-1,0.6-1.5,1l0,0l0,0
		C21.1,7,20.9,6.6,20.6,6.4L20.6,6.4z M30.9,3.5l-1.5,1.3l0.1,0.1l0,0c0.4-0.3,0.7,0,0.7,0.8l0,0l0,4.3l0,0c0,0.8,0.2,1.4,0.5,1.9
		l0,0l0,0c0.3,0.5,0.8,0.7,1.5,0.8l0,0l0,0c0.7,0,1.2-0.1,1.7-0.4l0,0l0,0c0.5-0.3,0.9-0.7,1.2-1.1l0,0l0,0c0.3-0.4,0.6-1,0.9-1.6
		l0,0l0,0C36.2,8.9,36.3,8,36.2,7l0,0l0,0c-0.1-1-0.4-1.9-1-2.5l0,0l0,0c-0.6-0.6-1.3-0.9-1.9-1l0,0l-1.8,1.4l0,0
		C31.4,4.3,31.2,3.8,30.9,3.5L30.9,3.5z M32.6,4.8L32.6,4.8L32.6,4.8c0.5-0.2,1,0,1.6,0.5l0,0l0,0c0.6,0.5,0.9,1.4,0.9,2.7l0,0l0,0
		c0.1,1.3,0,2.2-0.3,2.7l0,0l0,0c-0.3,0.5-0.6,0.9-1,1.1l0,0l0,0c-0.4,0.2-0.9,0.2-1.5,0l0,0l0,0c-0.6-0.3-0.8-1-0.9-2.1l0,0V5.6
		l0,0C31.7,5.2,32.1,5,32.6,4.8z M39.2,6.4L39.2,6.4c-0.8,0.5-1.3,0.9-1.6,1.3l0,0l0,0c-0.3,0.4-0.5,0.7-0.7,1.1l0,0l0,0
		c-0.1,0.4-0.2,0.9-0.1,1.4l0,0l0,0c0.1,0.6,0.4,1.1,1,1.6l0,0l0,0c0.6,0.5,1,0.8,1.4,0.8l0,0l0,0c0.3,0,0.9-0.3,1.6-1l0,0l0,0
		c0.3-0.3,0.6-0.6,0.8-0.9l0,0l0,0c0.3-0.3,0.4-0.7,0.5-1.1l0,0l0,0c0.1-0.4,0.1-0.8-0.1-1.2l0,0l0,0c-0.1-0.4-0.5-0.9-1-1.5l0,0
		l0,0C40.6,6.5,39.9,6.3,39.2,6.4L39.2,6.4z M38.8,7.3L38.8,7.3L38.8,7.3c0.5-0.1,1.1,0.2,1.7,1l0,0l0,0c0.6,0.8,0.9,1.4,0.7,2l0,0
		l0,0c-0.1,0.6-0.4,1-0.8,1.3l0,0l0,0c-0.4,0.3-0.9,0.3-1.4-0.1l0,0l0,0c-0.5-0.4-0.9-0.8-1.2-1.3l0,0l0,0c-0.3-0.5-0.3-1-0.1-1.7
		l0,0l0,0C37.9,7.8,38.3,7.4,38.8,7.3z M46,6.6L46,6.6L46,6.6c-0.7-0.1-1.4,0.1-2,0.7l0,0l0,0c-0.6,0.6-1,1.2-1.2,1.9l0,0l0,0
		c-0.2,0.7-0.1,1.4,0.2,2.1l0,0l0,0c0.3,0.6,0.8,1.1,1.6,1.4l0,0l0,0c0.6,0.2,1.3,0.1,1.9-0.4l0,0l0,0c0.7-0.5,1-0.9,1.1-1.3l0,0
		l-0.2-0.2l0,0c-0.5,0.8-1.1,1.2-1.6,1.1l0,0l0,0c-0.5,0-0.9-0.2-1.2-0.4l0,0l0,0c-0.3-0.2-0.5-0.4-0.6-0.7l0,0l1.9-1.3l0,0
		c1-0.6,1.4-1.2,1.3-1.8l0,0l0,0C47.1,7.1,46.7,6.7,46,6.6z M43.6,8.8L43.6,8.8L43.6,8.8c0-0.4,0.2-0.8,0.5-1.2l0,0l0,0
		c0.3-0.4,0.7-0.5,1.1-0.4l0,0l0,0C45.6,7.3,45.9,7.6,46,8l0,0l0,0c0.2,0.4,0.1,0.8-0.1,1l0,0l0,0c-0.2,0.2-0.9,0.7-2.1,1.4l0,0l0,0
		c-0.1-0.2-0.2-0.5-0.2-0.7l0,0l0,0C43.6,9.5,43.6,9.2,43.6,8.8z"/>
</g>
<path class="st1" d="M93.5,84.7c0,0,9-3,6.4-16.5v0c0,0,0,0,0,0l0,0c-0.2-0.8-1-1.2-1.7-1.1c-0.6,0.2-1.1,0.7-1.1,1.4
	c0,0,0,0.1,0,0.1l0,0c0,0-1.6,16.2-14.9,8.5C82.2,77,86.1,85.7,93.5,84.7z M15.5,84.7c7.5,1,11.4-7.7,11.4-7.7
	C13.5,84.7,12,68.5,12,68.5c0,0,0,0,0,0c0,0,0-0.1,0-0.1c0.2-0.8-0.3-1.5-1.1-1.7c-0.8-0.2-1.5,0.3-1.7,1.1c0,0.1,0,0.2,0,0.3l0,0
	l0,0v0C6.5,81.7,15.5,84.7,15.5,84.7z M16.4,100.3c-0.3,0-0.6,0-0.8,0c-4.8,0-9.3-2.4-12.9-6.4c-0.3-0.5-1-0.6-1.5-0.3
	c-0.3,0.2-0.5,0.5-0.5,0.9c0,0.2,0,0.3,0.1,0.5l0,0c2.7,7.7,10.6,13.2,20.1,13.2c0.3,0,0.6,0,0.8,0
	C19.8,106.4,17.9,103.9,16.4,100.3z M108.2,95.3c0.1-0.2,0.1-0.3,0.1-0.5c0-0.6-0.5-1.1-1.1-1.1c-0.4,0-0.7,0.2-0.9,0.5v0
	c-3.6,3.9-8,6.2-12.7,6.2c-0.4,0-0.8,0-1.3-0.1c-1.5,3.6-3.4,6.1-5.3,8c0.4,0,0.8,0,1.2,0C97.6,108.3,105.5,102.9,108.2,95.3
	L108.2,95.3L108.2,95.3L108.2,95.3z"/>
<path class="st2" d="M106.7,77.7c0-0.9-0.8-1.7-1.7-1.7c-0.7,0-1.2,0.4-1.5,0.9l0,0c-2.7,5.6-6.7,9.2-11.2,9.2
	c-8,0-14.5-11.2-14.8-25.2c4-2.3,5.4-7.5,3.1-11.6c-0.4-0.6-0.8-1.2-1.3-1.7c0.3-1,0.7-2.1,1.1-3c2.5-4.4,3.8-9.5,3.8-14.6
	c0-16.3-13.2-29.6-29.6-29.6C38.2,0.4,25,13.7,25,30c0,5.2,1.4,10.1,3.7,14.4c0.4,1,0.8,2.1,1.1,3.2c-3.3,3.3-3.3,8.7,0,12
	c0.5,0.5,1.1,1,1.7,1.3c-0.3,14-6.8,25.2-14.8,25.2c-4.5,0-8.4-3.5-11.2-9c-0.1-0.1-0.1-0.3-0.2-0.4c-0.5-0.8-1.6-1-2.3-0.4
	c-0.5,0.3-0.7,0.8-0.7,1.4c0,0.2,0,0.4,0.1,0.5c0,0.1,0.1,0.1,0.1,0.2c3,9.9,8,13.1,11.4,13.7c-0.1-0.3-0.1-0.6-0.1-0.8l-0.1-0.4
	l0,0c0-1.2,0.6-2.3,1.6-2.6c0.2-0.1,0.4-0.1,0.7-0.1c1.1,0,2.1,0.8,2.6,2l0,0l0.1,0.3c0,0,0.4,1.5,1.3,3.3c0.3,0,0.5,0,0.8,0
	c4,0,7.7-1.6,10.9-4.4c-2.4,3.9-5.3,7-8.6,8.8c1.7,1.7,4,2.7,6.4,2.7c3.4,0,6.4-1.9,8-4.8h0c2-4,3.1-10.7,3.1-10.7
	c-0.1,1.9,0.2,5.6-1.3,9.9l0,0.1c-1.5,4.1-5.4,6.8-9.7,6.8c-3.2,0-6.2-1.5-8.2-4c-0.2-0.2-0.3-0.4-0.5-0.6c-0.2-0.3-0.5-0.7-0.7-1
	c0,0,0-0.1,0-0.1c-0.2-0.3-0.4-0.6-0.6-1c0,0,0-0.1,0-0.1c-0.2-0.3-0.3-0.6-0.5-0.9c0,0,0,0,0-0.1c-0.5-1-1-2.1-1.3-3.2h0l-0.1-0.6
	c-0.3-0.8-1-1.4-1.6-1.2c-0.5,0.2-0.8,0.8-0.7,1.5l0,0.1h0c0.1,0.6,0.2,1.1,0.3,1.7c0.1,0.6,0.3,1.2,0.4,1.8c0,0.2,0.1,0.3,0.1,0.5
	c0.1,0.2,0.1,0.4,0.2,0.7l0.1,0.5c0.1,0.2,0.1,0.4,0.2,0.7c0.1,0.3,0.2,0.6,0.3,0.9c0.1,0.2,0.1,0.3,0.2,0.5
	c0.1,0.2,0.1,0.4,0.2,0.5c0.1,0.2,0.1,0.3,0.2,0.5c0.1,0.2,0.2,0.4,0.2,0.6c0.1,0.1,0.1,0.3,0.2,0.4c1.7,3.8,3.7,6.3,5.8,8
	c0.3,0.3,0.7,0.5,1,0.8c0.6,0.4,1.3,0.8,2,1.2c0.6,0.3,1.1,0.5,1.7,0.7c0,0,0.1,0,0.1,0c0.3,0.1,0.6,0.2,0.9,0.3
	c0.2,0.1,0.5,0.1,0.7,0.2c0,0,0.1,0,0.1,0c0.2,0,0.4,0.1,0.6,0.1l0.2,0l0.1,0c0.4,0.1,0.9,0.1,1.3,0.1l0.1,0l0.3,0
	c4.5,0,15.5-2,21.7-20.2l0.2-0.7l0.2,0.7c6.2,18.2,17.2,20.2,21.7,20.2l0.3,0l0.1,0c0.2,0,0.6,0,1.3-0.1l0.1,0l0.2,0
	c0.2,0,0.4-0.1,0.6-0.1l0.1,0c0.2-0.1,0.4-0.1,0.7-0.2l0.1,0c0.2-0.1,0.5-0.1,0.8-0.2c0,0,0,0,0.1,0c0.8-0.3,1.8-0.7,2.7-1.3
	c0,0,0,0,0.1,0c0.3-0.2,0.6-0.4,1-0.6c0,0,0,0,0.1,0c0.3-0.2,0.7-0.5,1-0.7c2.1-1.7,4.2-4.2,5.8-8c0.3-0.6,0.5-1.3,0.8-1.9
	c0-0.1,0.1-0.3,0.1-0.4c0.1-0.3,0.2-0.6,0.3-0.9c0.1-0.2,0.1-0.5,0.2-0.7c0.1-0.4,0.2-0.8,0.3-1.1c0-0.1,0-0.2,0.1-0.3
	c0.1-0.6,0.3-1.2,0.4-1.8c0.1-0.6,0.2-1.2,0.3-1.8l0-0.1c0.1-0.7-0.2-1.3-0.7-1.5c-0.6-0.2-1.3,0.4-1.6,1.2l-0.1,0.6h0
	c-0.3,0.8-0.6,1.6-0.9,2.3l0,0c-0.1,0.3-0.3,0.6-0.4,0.9c0,0,0,0,0,0.1c-0.2,0.3-0.3,0.6-0.5,0.9c0,0,0,0.1-0.1,0.1
	c-0.2,0.3-0.4,0.6-0.6,0.9c0,0,0,0,0,0.1c-0.2,0.3-0.4,0.7-0.7,1c-0.1,0.2-0.3,0.4-0.4,0.6c-2,2.6-5,4.1-8.2,4.1
	c-4.4,0-8.3-2.7-9.7-6.8l0-0.1c-1.3-2.9-1.2-8-1.3-9.9c0,0,1.1,6.6,3.1,10.7h0c1.6,3,4.6,4.8,8,4.8c2.5,0,4.9-1,6.6-2.9
	c-3.2-1.9-6-4.8-8.3-8.5c3.1,2.7,6.8,4.2,10.7,4.2c0.1,0,0.3,0,0.4,0c0.9-1.8,1.3-3.3,1.3-3.3l0.1-0.3l0,0c0.4-1.2,1.5-2,2.6-2
	c0.2,0,0.4,0,0.7,0.1c1,0.3,1.7,1.4,1.6,2.6l0,0l-0.1,0.4c-0.1,0.3-0.1,0.7-0.2,1c5.7-1.3,10.2-7.6,11.8-13.9l0,0
	C106.7,78.2,106.7,78,106.7,77.7L106.7,77.7z M37.8,58.1c-1.8,0-3.2-1.4-3.3-3.1c0-1.8,1.4-3.2,3.1-3.3c0,0,0.1,0,0.1,0
	c1.8,0,3.2,1.5,3.1,3.3C40.9,56.6,39.5,58,37.8,58.1z M71.3,58.1c-1.8,0-3.2-1.4-3.2-3.2c0,0,0,0,0,0c-0.1-1.8,1.3-3.2,3.1-3.3
	c1.8-0.1,3.2,1.3,3.3,3.1c0,0.1,0,0.1,0,0.2C74.5,56.6,73.1,58.1,71.3,58.1L71.3,58.1z"/>
</svg>
