<?xml version="1.0" encoding="utf-8"?>
<!-- Generator: Adobe Illustrator 23.0.1, SVG Export Plug-In . SVG Version: 6.00 Build 0)  -->
<svg version="1.1" id="Layer_1" xmlns="http://www.w3.org/2000/svg" xmlns:xlink="http://www.w3.org/1999/xlink" x="0px" y="0px"
	 viewBox="0 0 300 300" style="enable-background:new 0 0 300 300;" xml:space="preserve">
<style type="text/css">
	.st0{fill:none;}
	.st1{fill:url(#SVGID_1_);}
	.st2{fill:url(#SVGID_2_);}
</style>
<rect class="st0" width="300" height="300"/>
<g transform="matrix(2.199999832153333,0,0,2.199999832153333,39.99890584954027,40.000000000000014)">
	<linearGradient id="SVGID_1_" gradientUnits="userSpaceOnUse" x1="1.6" y1="78.3278" x2="214.56" y2="78.3278">
		<stop  offset="0.1307" style="stop-color:#5DD866"/>
		<stop  offset="0.2709" style="stop-color:#54C95D"/>
		<stop  offset="0.5419" style="stop-color:#3DA145"/>
		<stop  offset="0.9132" style="stop-color:#18611F"/>
		<stop  offset="1" style="stop-color:#0F5115"/>
	</linearGradient>
	<path class="st1" d="M85.1,75.8c0,0,8.1-2.7,5.8-14.9l0,0l0,0l0,0c-0.2-0.7-0.9-1.1-1.5-1s-1,0.7-1,1.3v0.1l0,0
		c0,0-1.4,14.5-13.4,7.6C74.9,68.9,78.4,76.7,85.1,75.8z M14.9,75.8c6.7,0.9,10.2-6.9,10.2-6.9c-12,6.9-13.4-7.6-13.4-7.6l0,0v-0.1
		c0.2-0.7-0.3-1.4-1-1.5c-0.7-0.2-1.4,0.3-1.5,1c0,0.1,0,0.2,0,0.3l0,0l0,0l0,0C6.8,73.1,14.9,75.8,14.9,75.8z M15.7,89.9
		c-0.3,0-0.5,0-0.8,0c-4.3,0-8.3-2.1-11.6-5.7C3,83.7,2.4,83.6,2,83.9c-0.3,0.2-0.4,0.5-0.4,0.8c0,0.2,0,0.3,0.1,0.4l0,0
		C4.1,92,11.3,97,19.8,97c0.3,0,0.5,0,0.8,0C18.7,95.4,17,93.1,15.7,89.9z M98.3,85.4c0.1-0.1,0.1-0.3,0.1-0.5c0-0.5-0.4-1-1-1
		c-0.3,0-0.6,0.2-0.8,0.4l0,0c-3.2,3.5-7.2,5.5-11.4,5.5c-0.4,0-0.8,0-1.1-0.1c-1.4,3.2-3.1,5.5-4.8,7.2c0.3,0,0.7,0,1,0
		C88.8,97.1,95.9,92.2,98.3,85.4L98.3,85.4L98.3,85.4L98.3,85.4z"/>
	<linearGradient id="SVGID_2_" gradientUnits="userSpaceOnUse" x1="3.1" y1="50" x2="209.9" y2="50">
		<stop  offset="0.1307" style="stop-color:#5DD866"/>
		<stop  offset="0.2709" style="stop-color:#54C95D"/>
		<stop  offset="0.5419" style="stop-color:#3DA145"/>
		<stop  offset="0.9132" style="stop-color:#18611F"/>
		<stop  offset="1" style="stop-color:#0F5115"/>
	</linearGradient>
	<path class="st2" d="M97,69.5c0-0.9-0.7-1.5-1.5-1.5c-0.6,0-1.1,0.3-1.4,0.9l0,0C91.7,74,88,77.2,84,77.2c-7.2,0-13-10.1-13.3-22.7
		c3.6-2.1,4.9-6.8,2.8-10.4c-0.3-0.6-0.7-1.1-1.2-1.5c0.3-0.9,0.6-1.9,1-2.7c2.3-4,3.5-8.5,3.5-13.1C76.6,11.9,64.7,0,50,0
		S23.4,11.9,23.4,26.6c0,4.7,1.2,9.1,3.4,12.9c0.4,0.9,0.7,1.9,1,2.9c-3,3-3,7.8,0,10.8c0.5,0.5,1,0.9,1.6,1.2
		C29.1,67,23.3,77.1,16.1,77.1c-4,0-7.6-3.1-10-8.1C6,68.9,6,68.8,5.9,68.6c-0.5-0.7-1.4-0.9-2.1-0.4c-0.4,0.3-0.7,0.8-0.7,1.3
		c0,0.2,0,0.3,0.1,0.5c0,0.1,0,0.1,0.1,0.2C6,79.1,10.5,82,13.6,82.6c0-0.3-0.1-0.5-0.1-0.8l-0.1-0.3l0,0c0-1.1,0.5-2,1.5-2.3
		C15,79,15.2,79,15.5,79c1,0,1.9,0.7,2.3,1.8l0,0l0.1,0.3c0,0,0.4,1.3,1.2,3c0.2,0,0.5,0,0.7,0c3.6,0,6.9-1.4,9.8-4
		c-2.1,3.5-4.8,6.3-7.8,8c1.5,1.5,3.6,2.4,5.8,2.4c3,0,5.8-1.7,7.2-4.3l0,0c1.8-3.6,2.8-9.6,2.8-9.6c-0.1,1.8,0.2,5-1.1,8.9v0.1
		c-1.3,3.7-4.8,6.1-8.8,6.2c-2.9,0-5.6-1.3-7.4-3.6c-0.1-0.2-0.3-0.4-0.4-0.6c-0.2-0.3-0.4-0.6-0.6-0.9c0,0,0,0,0-0.1
		c-0.2-0.3-0.4-0.6-0.5-0.9v-0.1c-0.2-0.3-0.3-0.6-0.4-0.8c0,0,0,0,0-0.1c-0.5-0.9-0.9-1.9-1.2-2.9l0,0l-0.1-0.5
		c-0.2-0.7-0.9-1.2-1.4-1c-0.4,0.1-0.7,0.7-0.6,1.3v0.1l0,0c0.1,0.5,0.2,1,0.3,1.5s0.2,1.1,0.3,1.6c0,0.1,0.1,0.3,0.1,0.4
		c0.1,0.2,0.1,0.4,0.2,0.6l0.1,0.4c0.1,0.2,0.1,0.4,0.2,0.6c0.1,0.3,0.2,0.5,0.2,0.8c0.1,0.2,0.1,0.3,0.2,0.4
		c0.1,0.2,0.1,0.3,0.2,0.5c0.1,0.1,0.1,0.3,0.2,0.4c0.1,0.2,0.1,0.3,0.2,0.5c0,0.1,0.1,0.2,0.1,0.4c1.5,3.4,3.4,5.6,5.2,7.2
		c0.3,0.2,0.6,0.5,0.9,0.7c0.6,0.4,1.2,0.7,1.8,1c0.5,0.3,1,0.5,1.6,0.7H27c0.3,0.1,0.5,0.2,0.8,0.2c0.2,0.1,0.4,0.1,0.6,0.2h0.1
		c0.2,0,0.4,0.1,0.5,0.1h0.1l0,0c0.4,0.1,0.8,0.1,1.2,0.1h0.1h0.3c4,0,13.9-1.8,19.5-18.1l0.2-0.6l0.2,0.6c5.1,16.3,15,18.1,19,18.1
		h0.3H70c0.1,0,0.6,0,1.2-0.1l0,0h0.1c0.2,0,0.4-0.1,0.6-0.1H72c0.2,0,0.4-0.1,0.6-0.2h0.1c0.2-0.1,0.4-0.1,0.7-0.2c0,0,0,0,0.1,0
		c0.8-0.3,1.6-0.6,2.5-1.1c0,0,0,0,0.1,0c0.3-0.2,0.6-0.4,0.9-0.6c0,0,0,0,0.1,0c0.3-0.2,0.6-0.4,0.9-0.7c1.9-1.5,3.8-3.8,5.2-7.2
		c0.2-0.6,0.5-1.2,0.7-1.8c0-0.1,0.1-0.2,0.1-0.4c0.1-0.3,0.2-0.5,0.3-0.8c0.1-0.2,0.1-0.4,0.2-0.6c0.1-0.3,0.2-0.7,0.3-1
		c0-0.1,0-0.2,0.1-0.3c0.1-0.5,0.3-1.1,0.4-1.6s0.2-1.1,0.3-1.6v-0.1c0.1-0.6-0.2-1.2-0.6-1.3c-0.5-0.2-1.2,0.3-1.4,1L83,81.8l0,0
		c-0.2,0.7-0.5,1.4-0.8,2.1l0,0c-0.1,0.3-0.3,0.5-0.4,0.8c0,0,0,0,0,0.1c-0.1,0.3-0.3,0.5-0.4,0.8v0.1c-0.2,0.3-0.3,0.6-0.5,0.8
		c0,0,0,0,0,0.1c-0.2,0.3-0.4,0.6-0.6,0.9c-0.1,0.2-0.2,0.4-0.4,0.5c-1.8,2.3-4.5,3.7-7.4,3.7c-3.9,0-7.4-2.5-8.8-6.2v-0.1
		c-1.1-2.6-1-7.2-1.1-8.9c0,0,1,6,2.8,9.6l0,0c1.4,2.7,4.2,4.3,7.2,4.3c2.3,0,4.4-0.9,5.9-2.6c-2.9-1.7-5.4-4.3-7.4-7.7
		c2.8,2.4,6.1,3.8,9.6,3.8c0.1,0,0.3,0,0.4,0c0.8-1.6,1.2-3,1.2-3l0.1-0.3l0,0c0.4-1.1,1.3-1.8,2.3-1.8c0.2,0,0.4,0,0.6,0.1
		c0.9,0.3,1.5,1.2,1.5,2.3l0,0l-0.1,0.3c-0.1,0.3-0.1,0.6-0.2,0.9c5.1-1.2,9.2-6.8,10.6-12.5l0,0C96.9,70,97,69.8,97,69.5L97,69.5z
		 M34.9,51.9c-1.6,0-2.9-1.2-2.9-2.8s1.2-2.9,2.8-2.9h0.1c1.6,0,2.8,1.3,2.8,2.9C37.7,50.6,36.5,51.8,34.9,51.9z M65.1,51.9
		c-1.6,0-2.9-1.3-2.9-2.9l0,0c-0.1-1.6,1.2-2.9,2.8-3s2.9,1.2,3,2.8c0,0.1,0,0.1,0,0.2C67.9,50.6,66.7,51.9,65.1,51.9L65.1,51.9z"/>
</g>
</svg>
