<?xml version="1.0" encoding="utf-8"?>
<!-- Generator: Adobe Illustrator 23.0.1, SVG Export Plug-In . SVG Version: 6.00 Build 0)  -->
<svg version="1.1" id="Layer_1" xmlns="http://www.w3.org/2000/svg" xmlns:xlink="http://www.w3.org/1999/xlink" x="0px" y="0px"
	 viewBox="0 0 300 300" style="enable-background:new 0 0 300 300;" xml:space="preserve">
<style type="text/css">
	.st0{fill:none;}
	.st1{fill:url(#SVGID_1_);}
	.st2{fill:url(#SVGID_2_);}
</style>
<rect class="st0" width="300" height="300"/>
<g transform="matrix(2.199999832153333,0,0,2.199999832153333,39.99890584954027,40.000000000000014)">
	
		<linearGradient id="SVGID_1_" gradientUnits="userSpaceOnUse" x1="-128.7103" y1="188.8872" x2="-127.7103" y2="188.8872" gradientTransform="matrix(193.2605 34.823 90.1189 -74.6782 7844.4795 18655.207)">
		<stop  offset="0" style="stop-color:#30092A"/>
		<stop  offset="1" style="stop-color:#CB3C61"/>
	</linearGradient>
	<path class="st1" d="M85.1,75.8c0,0,8.1-2.7,5.8-14.9v0c0,0,0,0,0,0l0,0c-0.2-0.7-0.9-1.1-1.5-1c-0.6,0.1-1,0.7-1,1.3
		c0,0,0,0.1,0,0.1l0,0c0,0-1.4,14.5-13.4,7.6C74.9,68.9,78.4,76.7,85.1,75.8z M14.9,75.8c6.7,0.9,10.2-6.9,10.2-6.9
		c-12,6.9-13.4-7.6-13.4-7.6c0,0,0,0,0,0c0,0,0-0.1,0-0.1c0.2-0.7-0.3-1.4-1-1.5c-0.7-0.2-1.4,0.3-1.5,1c0,0.1,0,0.2,0,0.3l0,0l0,0
		v0C6.8,73.1,14.9,75.8,14.9,75.8z M15.7,89.9c-0.3,0-0.5,0-0.8,0c-4.3,0-8.3-2.1-11.6-5.7C3,83.7,2.4,83.6,2,83.9
		c-0.3,0.2-0.4,0.5-0.4,0.8c0,0.2,0,0.3,0.1,0.4l0,0c2.4,6.9,9.6,11.9,18.1,11.9c0.3,0,0.5,0,0.8,0C18.7,95.4,17,93.1,15.7,89.9z
		 M98.3,85.4c0.1-0.1,0.1-0.3,0.1-0.5c0-0.5-0.4-1-1-1c-0.3,0-0.6,0.2-0.8,0.4v0c-3.2,3.5-7.2,5.5-11.4,5.5c-0.4,0-0.8,0-1.1-0.1
		c-1.4,3.2-3.1,5.5-4.8,7.2c0.3,0,0.7,0,1,0C88.8,97.1,95.9,92.2,98.3,85.4L98.3,85.4L98.3,85.4L98.3,85.4z"/>
	
		<linearGradient id="SVGID_2_" gradientUnits="userSpaceOnUse" x1="-128.9208" y1="189.3566" x2="-127.9208" y2="189.3566" gradientTransform="matrix(187.1394 92.976 87.2645 -199.3877 7594.1113 49767.1563)">
		<stop  offset="0" style="stop-color:#30092A"/>
		<stop  offset="1" style="stop-color:#CB3C61"/>
	</linearGradient>
	<path class="st2" d="M97,69.5c0-0.9-0.7-1.5-1.5-1.5c-0.6,0-1.1,0.3-1.4,0.9l0,0c-2.4,5.1-6.1,8.3-10.1,8.3
		c-7.2,0-13-10.1-13.3-22.7c3.6-2.1,4.9-6.8,2.8-10.4c-0.3-0.6-0.7-1.1-1.2-1.5c0.3-0.9,0.6-1.9,1-2.7c2.3-4,3.5-8.5,3.5-13.1
		C76.6,11.9,64.7,0,50,0C35.3,0,23.4,11.9,23.4,26.6c0,4.7,1.2,9.1,3.4,12.9c0.4,0.9,0.7,1.9,1,2.9c-3,3-3,7.8,0,10.8
		c0.5,0.5,1,0.9,1.6,1.2C29.1,67,23.3,77.1,16.1,77.1c-4,0-7.6-3.1-10-8.1c-0.1-0.1-0.1-0.2-0.2-0.4c-0.5-0.7-1.4-0.9-2.1-0.4
		c-0.4,0.3-0.7,0.8-0.7,1.3c0,0.2,0,0.3,0.1,0.5c0,0.1,0,0.1,0.1,0.2c2.7,8.9,7.2,11.8,10.3,12.4c0-0.3-0.1-0.5-0.1-0.8l-0.1-0.3
		l0,0c0-1.1,0.5-2,1.5-2.3C15,79,15.2,79,15.5,79c1,0,1.9,0.7,2.3,1.8l0,0l0.1,0.3c0,0,0.4,1.3,1.2,3c0.2,0,0.5,0,0.7,0
		c3.6,0,6.9-1.4,9.8-4c-2.1,3.5-4.8,6.3-7.8,8c1.5,1.5,3.6,2.4,5.8,2.4c3,0,5.8-1.7,7.2-4.3h0c1.8-3.6,2.8-9.6,2.8-9.6
		c-0.1,1.8,0.2,5-1.1,8.9l0,0.1c-1.3,3.7-4.8,6.1-8.8,6.2c-2.9,0-5.6-1.3-7.4-3.6c-0.1-0.2-0.3-0.4-0.4-0.6
		c-0.2-0.3-0.4-0.6-0.6-0.9c0,0,0,0,0-0.1c-0.2-0.3-0.4-0.6-0.5-0.9c0,0,0-0.1,0-0.1c-0.2-0.3-0.3-0.6-0.4-0.8c0,0,0,0,0-0.1
		c-0.5-0.9-0.9-1.9-1.2-2.9h0l-0.1-0.5c-0.2-0.7-0.9-1.2-1.4-1c-0.4,0.1-0.7,0.7-0.6,1.3l0,0.1h0c0.1,0.5,0.2,1,0.3,1.5
		c0.1,0.5,0.2,1.1,0.3,1.6c0,0.1,0.1,0.3,0.1,0.4c0.1,0.2,0.1,0.4,0.2,0.6l0.1,0.4c0.1,0.2,0.1,0.4,0.2,0.6c0.1,0.3,0.2,0.5,0.2,0.8
		c0.1,0.2,0.1,0.3,0.2,0.4c0.1,0.2,0.1,0.3,0.2,0.5c0.1,0.1,0.1,0.3,0.2,0.4c0.1,0.2,0.1,0.3,0.2,0.5c0,0.1,0.1,0.2,0.1,0.4
		c1.5,3.4,3.4,5.6,5.2,7.2c0.3,0.2,0.6,0.5,0.9,0.7c0.6,0.4,1.2,0.7,1.8,1c0.5,0.3,1,0.5,1.6,0.7c0,0,0.1,0,0.1,0
		c0.3,0.1,0.5,0.2,0.8,0.2c0.2,0.1,0.4,0.1,0.6,0.2c0,0,0.1,0,0.1,0c0.2,0,0.4,0.1,0.5,0.1l0.1,0l0,0c0.4,0.1,0.8,0.1,1.2,0.1l0.1,0
		l0.3,0c4,0,13.9-1.8,19.5-18.1l0.2-0.6l0.2,0.6C55.7,98.2,65.6,100,69.6,100l0.3,0l0.1,0c0.1,0,0.6,0,1.2-0.1l0,0l0.1,0
		c0.2,0,0.4-0.1,0.6-0.1l0.1,0c0.2,0,0.4-0.1,0.6-0.2l0.1,0c0.2-0.1,0.4-0.1,0.7-0.2c0,0,0,0,0.1,0c0.8-0.3,1.6-0.6,2.5-1.1
		c0,0,0,0,0.1,0c0.3-0.2,0.6-0.4,0.9-0.6c0,0,0,0,0.1,0c0.3-0.2,0.6-0.4,0.9-0.7c1.9-1.5,3.8-3.8,5.2-7.2c0.2-0.6,0.5-1.2,0.7-1.8
		c0-0.1,0.1-0.2,0.1-0.4c0.1-0.3,0.2-0.5,0.3-0.8c0.1-0.2,0.1-0.4,0.2-0.6c0.1-0.3,0.2-0.7,0.3-1c0-0.1,0-0.2,0.1-0.3
		c0.1-0.5,0.3-1.1,0.4-1.6c0.1-0.5,0.2-1.1,0.3-1.6l0-0.1c0.1-0.6-0.2-1.2-0.6-1.3c-0.5-0.2-1.2,0.3-1.4,1L83,81.8h0
		c-0.2,0.7-0.5,1.4-0.8,2.1l0,0c-0.1,0.3-0.3,0.5-0.4,0.8c0,0,0,0,0,0.1c-0.1,0.3-0.3,0.5-0.4,0.8c0,0,0,0.1,0,0.1
		c-0.2,0.3-0.3,0.6-0.5,0.8c0,0,0,0,0,0.1c-0.2,0.3-0.4,0.6-0.6,0.9c-0.1,0.2-0.2,0.4-0.4,0.5c-1.8,2.3-4.5,3.7-7.4,3.7
		c-3.9,0-7.4-2.5-8.8-6.2l0-0.1c-1.1-2.6-1-7.2-1.1-8.9c0,0,1,6,2.8,9.6h0c1.4,2.7,4.2,4.3,7.2,4.3c2.3,0,4.4-0.9,5.9-2.6
		c-2.9-1.7-5.4-4.3-7.4-7.7c2.8,2.4,6.1,3.8,9.6,3.8c0.1,0,0.3,0,0.4,0c0.8-1.6,1.2-3,1.2-3l0.1-0.3l0,0c0.4-1.1,1.3-1.8,2.3-1.8
		c0.2,0,0.4,0,0.6,0.1c0.9,0.3,1.5,1.2,1.5,2.3l0,0l-0.1,0.3c-0.1,0.3-0.1,0.6-0.2,0.9c5.1-1.2,9.2-6.8,10.6-12.5l0,0
		C96.9,70,97,69.8,97,69.5L97,69.5z M34.9,51.9c-1.6,0-2.9-1.2-2.9-2.8c0-1.6,1.2-2.9,2.8-2.9c0,0,0.1,0,0.1,0
		c1.6,0,2.8,1.3,2.8,2.9C37.7,50.6,36.5,51.8,34.9,51.9z M65.1,51.9c-1.6,0-2.9-1.3-2.9-2.9c0,0,0,0,0,0c-0.1-1.6,1.2-2.9,2.8-3
		c1.6-0.1,2.9,1.2,3,2.8c0,0.1,0,0.1,0,0.2C67.9,50.6,66.7,51.9,65.1,51.9L65.1,51.9z"/>
</g>
</svg>
