<?xml version="1.0" encoding="utf-8"?>
<!-- Generator: Adobe Illustrator 23.0.1, SVG Export Plug-In . SVG Version: 6.00 Build 0)  -->
<svg version="1.1" id="Layer_1" xmlns="http://www.w3.org/2000/svg" xmlns:xlink="http://www.w3.org/1999/xlink" x="0px" y="0px"
	 viewBox="0 0 792 612" style="enable-background:new 0 0 792 612;" xml:space="preserve">
<style type="text/css">
	.st0{fill:#FFFFFF;stroke:#000000;}
</style>
<path class="st0" d="M396.29,191.76c-76.23,0-152.46,0.01-228.69-0.01c-19.03,0-34.26-12.19-38.3-30.58
	c-5-22.73,12.81-45.38,36.09-45.9c0.76-0.02,1.53-0.02,2.29-0.02c152.38,0,304.75,0,457.13,0c17.93,0,32.91,10.96,37.66,27.49
	c7.11,24.71-11.12,48.97-36.98,48.99c-62.89,0.06-125.78,0.02-188.66,0.02C423.32,191.76,409.8,191.76,396.29,191.76z"/>
<path class="st0" d="M395.97,344.76c-76.15,0-152.29,0.01-228.44-0.01c-18.99,0-34.25-12.26-38.25-30.63
	c-4.93-22.63,12.77-45.22,35.92-45.84c0.93-0.02,1.87-0.02,2.8-0.02c152.21,0,304.41,0,456.62,0c18.13,0,33.09,10.9,37.87,27.55
	c7.06,24.61-11.12,48.88-36.8,48.93c-45.81,0.08-91.61,0.02-137.42,0.02C457.5,344.76,426.74,344.76,395.97,344.76z"/>
<path class="st0" d="M396.55,421.26c76.23,0,152.46-0.01,228.69,0.01c18.79,0,34.01,12.31,38,30.61
	c4.94,22.64-12.72,45.21-35.89,45.86c-0.93,0.03-1.87,0.02-2.8,0.02c-152.21,0-304.41,0-456.62,0c-18.09,0-33.13-10.95-37.88-27.54
	c-7.08-24.73,11.16-48.93,37.04-48.94C243.58,421.23,320.07,421.26,396.55,421.26z"/>
</svg>
