<?xml version="1.0" encoding="utf-8"?>
<!-- Generator: Adobe Illustrator 23.0.1, SVG Export Plug-In . SVG Version: 6.00 Build 0)  -->
<svg version="1.1" id="Layer_1" xmlns="http://www.w3.org/2000/svg" xmlns:xlink="http://www.w3.org/1999/xlink" x="0px" y="0px"
	 viewBox="0 0 792 612" style="enable-background:new 0 0 792 612;" xml:space="preserve">
<style type="text/css">
	.st0{fill:#FFFFFF;stroke:#000000;}
</style>
<path class="st0" d="M444.6,191.8c-62.5,0-125,0-187.5,0c-15.6,0-28.1-12.2-31.4-30.6c-4.1-22.7,10.5-45.4,29.6-45.9
	c0.6,0,1.3,0,1.9,0c124.9,0,249.8,0,374.7,0c14.7,0,27,11,30.9,27.5c5.8,24.7-9.1,49-30.3,49c-51.6,0.1-103.1,0-154.7,0
	C466.7,191.8,455.6,191.8,444.6,191.8z"/>
<path class="st0" d="M529.9,344.8c-38.1,0-76.2,0-114.3,0c-9.5,0-17.1-12.3-19.1-30.6c-2.5-22.6,6.4-45.2,18-45.8c0.5,0,0.9,0,1.4,0
	c76.2,0,152.3,0,228.5,0c9.1,0,16.6,10.9,19,27.5c3.5,24.6-5.6,48.9-18.4,48.9c-22.9,0.1-45.8,0-68.8,0
	C560.7,344.8,545.3,344.8,529.9,344.8z"/>
<path class="st0" d="M396.5,421.3c76.2,0,152.5,0,228.7,0c18.8,0,34,12.3,38,30.6c4.9,22.6-12.7,45.2-35.9,45.9c-0.9,0-1.9,0-2.8,0
	c-152.2,0-304.4,0-456.6,0c-18.1,0-33.1-11-37.9-27.5c-7.1-24.7,11.2-48.9,37-48.9C243.6,421.2,320.1,421.3,396.5,421.3z"/>
</svg>
